<svg xmlns="http://www.w3.org/2000/svg" xmlns:svg="http://www.w3.org/2000/svg" xmlns:xlink="http://www.w3.org/1999/xlink" id="svg10" class="ionicon" version="1.1" viewBox="0 0 512 512"><metadata id="metadata16"/><defs id="defs14"><linearGradient id="linearGradient62"><stop style="stop-color:red;stop-opacity:1" id="stop58" offset="0"/><stop style="stop-color:#ff0;stop-opacity:1" id="stop64" offset=".369"/><stop style="stop-color:#0f0;stop-opacity:1" id="stop66" offset=".73"/><stop style="stop-color:#0ff;stop-opacity:1" id="stop60" offset="1"/></linearGradient><linearGradient id="linearGradient50"><stop style="stop-color:red;stop-opacity:1" id="stop46" offset="0"/><stop style="stop-color:#ff0;stop-opacity:1" id="stop48" offset="1"/></linearGradient><linearGradient id="linearGradient42"><stop style="stop-color:red;stop-opacity:1" id="stop38" offset="0"/><stop style="stop-color:#ff0;stop-opacity:1" id="stop44" offset=".18"/><stop style="stop-color:#0f0;stop-opacity:1" id="stop52" offset=".325"/><stop style="stop-color:#0ff;stop-opacity:1" id="stop54" offset=".513"/><stop style="stop-color:#00f;stop-opacity:1" id="stop56" offset=".808"/><stop style="stop-color:#f0f;stop-opacity:1" id="stop40" offset="1"/></linearGradient><radialGradient id="radialGradient32" cx="222.68" cy="-286.853" r="208" fx="222.68" fy="-286.853" gradientTransform="matrix(-0.53868804,1.3814916,-2.3819874,-0.92831595,-313.46897,-430.70712)" gradientUnits="userSpaceOnUse" xlink:href="#linearGradient42"/><radialGradient id="radialGradient34" cx="182.461" cy="-76.331" r="208" fx="182.461" fy="-76.331" gradientTransform="matrix(0.26129089,1.2189682,-1.5085009,0.3234575,60.36885,-114.26329)" gradientUnits="userSpaceOnUse" xlink:href="#linearGradient62"/><radialGradient id="radialGradient36" cx="220.176" cy="210.643" r="208" fx="220.176" fy="210.643" gradientTransform="matrix(-0.55093818,0.86165671,-0.9923323,-0.63441003,539.88714,67.436833)" gradientUnits="userSpaceOnUse" xlink:href="#linearGradient50"/></defs><title id="title2">Layers</title><path id="path4" d="M256 256c-13.47 0-26.94-2.39-37.44-7.17l-148-67.49C63.79 178.26 48 169.25 48 152.24s15.79-26 22.58-29.12l149.28-68.07c20.57-9.4 51.61-9.4 72.19 0l149.37 68.07c6.79 3.09 22.58 12.1 22.58 29.12s-15.79 26-22.58 29.11l-148 67.48C282.94 253.61 269.47 256 256 256zm176.76-100.86z" style="fill-opacity:1;fill:url(#radialGradient36)"/><path id="path6" d="M441.36 226.81L426.27 220l-38.77 17.74-94 43c-10.5 4.8-24 7.19-37.44 7.19s-26.93-2.39-37.42-7.19l-94.07-43L85.79 220l-15.22 6.84C63.79 229.93 48 239 48 256s15.79 26.08 22.56 29.17l148 67.63C229 357.6 242.49 360 256 360s26.94-2.4 37.44-7.19l147.87-67.61c6.81-3.09 22.69-12.11 22.69-29.2s-15.77-26.07-22.64-29.19z" style="fill-opacity:1;fill:url(#radialGradient34)"/><path id="path8" d="M441.36 330.8l-15.09-6.8-38.77 17.73-94 42.95c-10.5 4.78-24 7.18-37.44 7.18s-26.93-2.39-37.42-7.18l-94.07-43L85.79 324l-15.22 6.84C63.79 333.93 48 343 48 360s15.79 26.07 22.56 29.15l148 67.59C229 461.52 242.54 464 256 464s26.88-2.48 37.38-7.27l147.92-67.57c6.82-3.08 22.7-12.1 22.7-29.16s-15.77-26.07-22.64-29.2z" style="fill-opacity:1;fill:url(#radialGradient32)"/></svg>